# xmcd CD database file
#
# Track frame offsets:
#	150
#	21444
#	35268
#	64232
#	90958
#	115070
#	133826
#	155246
#	178567
#	209828
#	237055
#	261690
#	274058
#	297389
#
# Disc length: 4045 seconds
#
# Revision: 0
# Processed by: cddbd v1.4PL0 Copyright (c) Steve Scherf et al.
# Submitted via: CDex 1.50
#
DISCID=d80fcb0e
DTITLE=Rudy Linka - Emotions In Motion
DYEAR=1900
DGENRE=Jazz
TTITLE0=Stephanie's New Waltz
TTITLE1=Bob's Tune
TTITLE2=I'd Rather Be Dancin
TTITLE3=Across
TTITLE4=Waltz For John
TTITLE5=Satiricon
TTITLE6=News From Home
TTITLE7=Just Between Us
TTITLE8=Alone Together
TTITLE9=Waltz For Stephanie
TTITLE10=Dear Friend
TTITLE11=Short Story
TTITLE12=Collage
TTITLE13=The Very Last
EXTD=
EXTT0=
EXTT1=
EXTT2=
EXTT3=
EXTT4=
EXTT5=
EXTT6=
EXTT7=
EXTT8=
EXTT9=
EXTT10=
EXTT11=
EXTT12=
EXTT13=
PLAYORDER=
